<svg 
 xmlns="http://www.w3.org/2000/svg"
 xmlns:xlink="http://www.w3.org/1999/xlink"
 width="5in" height="6.375in">
<path fill-rule="evenodd"  fill="rgb(4, 77, 128)"
 d="M257.284,286.784 L251.483,284.463 C247.422,289.105 241.040,296.071 235.818,298.973 C233.498,299.554 229.436,287.945 228.276,280.399 L227.696,280.978 C220.154,287.364 211.451,293.749 202.749,298.393 C187.085,307.099 172.580,307.099 157.496,298.393 C148.794,293.749 140.091,287.945 132.549,280.978 L131.969,280.399 C130.808,287.945 126.167,300.134 124.427,298.973 C119.205,296.071 112.823,288.525 108.762,284.463 L102.960,286.784 C80.914,296.071 60.028,307.680 40.303,321.031 C78.594,261.824 68.731,212.485 72.792,150.957 C73.372,139.347 75.112,127.737 79.754,116.128 C85.555,100.456 94.838,87.686 105.861,77.818 L101.800,51.698 C101.220,42.991 104.121,33.123 111.083,27.319 C130.808,11.065 154.015,0.618 179.542,0.618 C205.650,0.618 228.856,11.065 248.582,27.319 C256.124,33.123 258.445,42.410 257.865,51.698 L253.804,76.658 C254.964,77.818 255.544,78.979 256.705,79.560 C267.727,89.428 274.109,101.618 279.911,116.128 C283.972,127.156 286.293,139.347 286.873,150.957 C290.934,211.904 279.331,257.180 319.942,321.031 C300.217,307.099 279.331,296.071 257.284,286.784 ZM239.299,38.928 C220.734,23.836 200.428,15.709 180.123,15.709 C159.817,15.709 139.511,23.256 120.945,38.928 C117.465,41.830 116.304,45.893 116.885,50.537 L123.266,91.168 C142.992,87.686 161.557,85.944 180.123,85.944 C198.688,85.944 217.253,87.686 236.979,91.168 L243.361,50.537 C243.361,45.893 242.780,41.830 239.299,38.928 ZM254.384,154.439 C252.063,154.439 249.742,157.341 247.422,161.404 C245.101,165.467 243.361,168.370 240.460,164.887 C236.399,160.244 235.238,151.537 232.918,144.571 C228.276,132.381 223.635,134.123 216.673,138.767 C202.749,148.634 188.825,155.019 176.061,160.244 C165.618,164.307 142.412,170.692 130.228,174.174 C125.007,175.917 122.686,176.496 118.625,180.560 C113.403,186.364 111.663,194.491 112.823,203.777 C113.984,219.450 118.045,234.542 123.266,244.410 C131.969,261.243 145.893,274.013 166.199,285.042 C175.481,290.846 184.764,290.846 194.627,285.042 C214.933,273.433 228.856,260.663 237.559,244.410 C241.040,238.025 243.941,229.318 245.681,219.450 C245.681,218.290 246.261,218.290 247.422,218.290 C253.223,218.290 259.605,204.359 261.346,186.945 C263.086,169.530 259.605,155.600 254.384,154.439 Z"/>
<path fill-rule="evenodd"  fill="rgb(0, 149, 218)"
 d="M0.896,435.522 C3.798,423.979 13.082,378.958 21.785,354.717 C28.748,335.670 87.934,306.811 105.341,299.308 L180.193,381.844 L255.045,299.308 C272.452,306.811 331.638,335.670 338.601,354.717 C346.724,378.958 356.588,423.979 359.489,435.522 C362.391,447.642 349.045,458.610 336.280,458.610 L24.106,458.610 C11.341,458.610 -2.585,447.642 0.896,435.522 Z"/>
</svg>