<?xml version="1.0" encoding="iso-8859-1"?>
<!-- Generator: Adobe Illustrator 19.0.0, SVG Export Plug-In . SVG Version: 6.00 Build 0)  -->
<svg version="1.1" id="Capa_1" xmlns="http://www.w3.org/2000/svg" xmlns:xlink="http://www.w3.org/1999/xlink" x="0px" y="0px"
	 viewBox="0 0 511.999 511.999" style="enable-background:new 0 0 511.999 511.999;" xml:space="preserve">
<path style="fill:#636D70;" d="M335.226,359.213l-64.711-23.229c-15.371-5.52-32.301-5.52-47.672,0l-64.711,23.229
	c-26.934,9.668-45.03,35.39-45.03,64.007v75.078c0,7.555,6.146,13.701,13.701,13.701h239.751c7.555,0,13.701-6.146,13.701-13.701
	V423.22C380.256,394.604,362.16,368.881,335.226,359.213z"/>
<path style="fill:#394245;" d="M335.226,359.213l-64.711-23.229c-11.665-4.189-24.226-5.191-36.325-3.022
	c3.844,0.689,7.641,1.691,11.347,3.022l64.711,23.229c26.934,9.668,45.03,35.39,45.03,64.007v75.078
	c0,7.555-6.146,13.701-13.701,13.701h24.977c7.555,0,13.701-6.146,13.701-13.701V423.22
	C380.256,394.604,362.16,368.881,335.226,359.213z"/>
<path style="fill:#D8E6F0;" d="M325.493,355.72l-54.978-19.737c-15.37-5.516-32.301-5.515-47.671,0.001l-54.391,19.526
	c-3.676,1.319-5.756,5.207-4.816,8.998c8.581,34.556,48.361,100.25,78.854,122.671c1.341,0.986,2.925,1.479,4.508,1.479
	c1.584,0,3.167-0.493,4.508-1.479c30.354-22.318,70.122-87.899,78.796-122.442C331.256,360.942,329.176,357.042,325.493,355.72z"/>
<path style="fill:#C3D3DD;" d="M270.242,335.891c-0.764-0.271-1.533-0.527-2.304-0.771c-0.298-0.094-0.597-0.182-0.896-0.272
	c-0.602-0.181-1.205-0.355-1.811-0.519c-0.304-0.083-0.608-0.166-0.913-0.245c-0.727-0.187-1.457-0.362-2.189-0.526
	c-0.16-0.036-0.32-0.077-0.481-0.112c-0.865-0.187-1.733-0.353-2.603-0.508c-0.314-0.056-0.628-0.104-0.942-0.155
	c-0.59-0.097-1.181-0.186-1.772-0.268c-0.349-0.048-0.698-0.095-1.048-0.138c-0.618-0.076-1.238-0.14-1.858-0.199
	c-0.289-0.028-0.578-0.061-0.867-0.086c-0.84-0.07-1.682-0.122-2.523-0.162c-0.385-0.018-0.771-0.027-1.157-0.039
	c-0.508-0.016-1.016-0.028-1.525-0.033c-0.427-0.004-0.855-0.005-1.282-0.001c-0.481,0.004-0.962,0.017-1.444,0.031
	c-0.424,0.013-0.849,0.02-1.273,0.04c-0.791,0.037-1.581,0.089-2.37,0.152c-0.473,0.038-0.945,0.089-1.417,0.137
	c-0.408,0.041-0.816,0.083-1.224,0.131c-0.492,0.059-0.983,0.122-1.474,0.191c-0.384,0.054-0.767,0.113-1.15,0.173
	c-0.501,0.078-1.001,0.155-1.5,0.244c-0.009,0.001-0.017,0.003-0.026,0.005c3.843,0.689,7.64,1.691,11.345,3.022l64.711,23.229
	c6.865,2.464,13.151,5.976,18.715,10.308c0.505-1.651,0.954-3.25,1.34-4.785c0.952-3.795-1.128-7.695-4.811-9.017l-10.991-3.946
	l-43.986-15.789C270.425,335.951,270.333,335.923,270.242,335.891z"/>
<path style="fill:#B4CBDB;" d="M302.281,411.168l-3.184-41.4c-1.394-18.129-11.859-33.961-27.992-42.351
	c-15.094-7.847-33.116-7.847-48.21,0c-16.133,8.389-26.598,24.222-27.992,42.351l-3.184,41.401c-0.274,3.559,1.44,6.941,4.473,8.825
	c1.544,0.96,3.285,1.441,5.029,1.441c1.678,0,3.358-0.446,4.863-1.34l40.45-23.997h0.934l40.449,23.997
	c3.071,1.824,6.862,1.784,9.893-0.101C300.841,418.109,302.554,414.727,302.281,411.168z"/>
<path style="fill:#F0B27D;" d="M213.941,293.365v59.174c0,13.23,17.528,37.775,26.933,49.993c2.932,3.809,8.68,3.809,11.612,0
	c9.406-12.219,26.933-36.763,26.933-49.993v-59.174H213.941z"/>
<path style="fill:#935D38;" d="M342.756,92.228L147.403,66.141c-11.191-1.494-22.283,3.368-28.766,12.612l-8.915,12.71
	c-5.468,7.795-6.946,17.709-3.99,26.76l30.164,92.361l225.633-5.406l16.581-55.862c2.309-7.78,1.371-16.162-2.602-23.239
	l-10.547-18.788C360.339,99.056,352.114,93.477,342.756,92.228z"/>
<path style="fill:#6D3E1F;" d="M364.961,107.289c-4.532-8.073-12.533-13.584-21.666-14.973v113.299l18.234-0.437l16.581-55.862
	c2.309-7.779,1.371-16.163-2.602-23.239L364.961,107.289z"/>
<path style="fill:#B4CBDB;" d="M354.264,325.856c-1.919,0-3.839-0.732-5.304-2.196c-2.929-2.93-2.929-7.678,0-10.607l10.547-10.547
	c1.152-1.151,1.786-2.682,1.786-4.31v-43.297c0-4.143,3.357-7.5,7.5-7.5s7.5,3.357,7.5,7.5v43.297
	c0,5.635-2.194,10.932-6.179,14.917l-10.547,10.547C358.103,325.124,356.183,325.856,354.264,325.856z"/>
<g>
	<path style="fill:#80B9F9;" d="M363.216,264.383h-35.802v-68.339h35.802c14.125,0,25.576,11.451,25.576,25.576v17.188
		C388.792,252.932,377.341,264.383,363.216,264.383z"/>
	<path style="fill:#80B9F9;" d="M130.782,264.383h35.802v-68.339h-35.802c-14.125,0-25.576,11.451-25.576,25.576v17.188
		C105.207,252.932,116.657,264.383,130.782,264.383z"/>
</g>
<path style="fill:#FFDC48;" d="M359.567,313.053c-7.394-7.392-19.42-7.392-26.812,0l-5.564,5.563
	c-7.392,7.393-7.391,19.421,0,26.813c3.696,3.695,8.552,5.544,13.406,5.544c4.855,0,9.711-1.849,13.407-5.544l5.563-5.563
	C366.959,332.474,366.959,320.445,359.567,313.053z"/>
<g>
	<path style="fill:#F9C295;" d="M188.144,114.972c-21.031,0-38.079,17.049-38.079,38.079v105.06
		c0,37.074,56.599,78.912,96.615,78.912s96.615-41.838,96.615-78.912V149.054c0-18.823-15.259-34.082-34.082-34.082
		C309.213,114.972,188.144,114.972,188.144,114.972z"/>
	<path style="fill:#F9C295;" d="M227.1,114.969c0,0.42-0.04,0.84-0.1,1.26c-0.08-0.41-0.12-0.83-0.12-1.26H227.1z"/>
</g>
<path style="fill:#DE9962;" d="M309.213,114.972h-24.598c18.823,0,34.082,15.259,34.082,34.082V258.11
	c0,33.405-45.949,70.671-84.316,77.722c4.214,0.774,8.339,1.19,12.299,1.19c40.016,0,96.615-41.838,96.615-78.912V149.054
	C343.295,130.231,328.036,114.972,309.213,114.972z"/>
<g>
	<path style="fill:#3A3B4A;" d="M246.916,274.814c-9.604,0-19.205-3.624-26.689-10.877c-2.975-2.883-3.049-7.631-0.167-10.605
		c2.882-2.974,7.631-3.05,10.605-0.166c9.113,8.83,23.388,8.828,32.502,0c2.974-2.884,7.723-2.808,10.604,0.166
		c2.883,2.976,2.809,7.724-0.167,10.605C266.123,271.188,256.518,274.814,246.916,274.814z"/>
	<path style="fill:#3A3B4A;" d="M312.735,212.678c-2.097,0-4.183-0.875-5.666-2.583c-1.373-1.581-3.111-2.452-4.894-2.452
		c-1.783,0-3.521,0.871-4.895,2.452c-2.718,3.129-7.456,3.46-10.58,0.746c-3.128-2.716-3.462-7.453-0.746-10.58
		c4.204-4.842,10.116-7.618,16.221-7.618c6.104,0,12.016,2.776,16.22,7.618c2.716,3.127,2.382,7.864-0.746,10.58
		C316.23,212.073,314.479,212.678,312.735,212.678z"/>
	<path style="fill:#3A3B4A;" d="M180.624,212.678c-1.743,0-3.495-0.604-4.914-1.837c-3.127-2.717-3.461-7.453-0.745-10.581
		c4.204-4.841,10.116-7.617,16.219-7.617c6.104,0,12.016,2.776,16.221,7.617c2.716,3.127,2.383,7.864-0.745,10.58
		c-3.128,2.717-7.865,2.383-10.581-0.744c-1.374-1.582-3.112-2.453-4.895-2.453s-3.521,0.871-4.895,2.453
		C184.807,211.803,182.721,212.678,180.624,212.678z"/>
</g>
<path style="fill:#935D38;" d="M384.678,71.271c-10.135,0.991-20.703,0.401-30.01-4.087c-13.87-6.689-22.285-20.273-33.541-30.199
	c-11.529-10.167-25.328-18.826-39.202-25.37c-27.831-13.126-62.547-18.417-88.393,1.953c-7.971,6.282-14.318,14.413-19.265,23.23
	c-31.124,55.478,27.474,78.174,27.474,78.174h54.899c22.291,25.777,136.418,61.753,151.069-40.154
	c0.522-3.629-2.825-6.603-6.39-5.747C395.111,70.561,386.95,71.049,384.678,71.271z"/>
<g>
	<path style="fill:#6D3E1F;" d="M252.46,57.569c0.16,4.14-3.07,7.62-7.21,7.77c-11.06,0.41-18.59,4.55-22.37,12.3
		c-5.06,10.38-2.64,25.41,2.8,32.94c0.68,0.94,1.1,1.98,1.29,3.04c0.09,0.45,0.13,0.9,0.13,1.35c0,0.42-0.04,0.84-0.1,1.26
		c-0.08-0.41-0.12-0.83-0.12-1.26h-16.06c-6.15-11.79-8.27-29.88-1.42-43.91c6.22-12.74,18.75-20.09,35.29-20.71
		C248.83,50.229,252.31,53.429,252.46,57.569z"/>
	<path style="fill:#6D3E1F;" d="M298.1,87.609c-2.08,3.58-6.68,4.79-10.25,2.71c-8.72-5.07-17.62-5.23-26.48-0.47
		c-11.72,6.3-18.82,18.64-19.46,25.12H227.1c0,0.42-0.04,0.84-0.1,1.26c-0.08-0.41-0.12-0.83-0.12-1.26c0-0.14,0-0.28,0.01-0.43
		c0.02-0.31,0.04-0.61,0.08-0.92c1.24-13.24,13.05-29.33,27.3-36.99c13.37-7.18,27.98-6.93,41.12,0.72
		C298.97,79.429,300.18,84.029,298.1,87.609z"/>
</g>
<g>
	<path style="fill:#B78358;" d="M252.258,322.5H241.74c-26.584,0-48.212-21.628-48.212-48.212v-15.783
		c0-19.735,16.056-35.791,35.792-35.791h35.359c19.735,0,35.791,16.056,35.791,35.791v15.783
		C300.47,300.872,278.842,322.5,252.258,322.5z M229.32,237.714c-11.464,0-20.792,9.327-20.792,20.791v15.783
		c0,18.313,14.899,33.212,33.212,33.212h10.518c18.313,0,33.211-14.898,33.211-33.212v-15.783c0-11.464-9.327-20.791-20.791-20.791
		L229.32,237.714L229.32,237.714z"/>
	<path style="fill:#B78358;" d="M343.295,258.111v-17.476c-13.772,26.891-43.148,53.295-75.111,61.899
		c-5.135,1.383-10.19-2.46-10.19-7.777c0-4.45-3.608-8.058-8.058-8.058h-5.873c-4.45,0-8.058,3.608-8.058,8.058
		c0,5.318-5.055,9.16-10.19,7.777c-32.464-8.74-62.263-35.84-75.75-63.165v18.742c0,37.073,56.599,78.912,96.615,78.912
		S343.295,295.184,343.295,258.111z"/>
</g>
<g>
</g>
<g>
</g>
<g>
</g>
<g>
</g>
<g>
</g>
<g>
</g>
<g>
</g>
<g>
</g>
<g>
</g>
<g>
</g>
<g>
</g>
<g>
</g>
<g>
</g>
<g>
</g>
<g>
</g>
</svg>
