<?xml version="1.0" encoding="iso-8859-1"?>
<!-- Generator: Adobe Illustrator 19.0.0, SVG Export Plug-In . SVG Version: 6.00 Build 0)  -->
<svg xmlns="http://www.w3.org/2000/svg" xmlns:xlink="http://www.w3.org/1999/xlink" version="1.1" id="Capa_1" x="0px" y="0px" viewBox="0 0 512 512" style="enable-background:new 0 0 512 512;" xml:space="preserve" width="512px" height="512px">
<g>
	<g>
		<path d="M501.333,426.667h-74.667v-76.824c48.658-9.923,85.277-52.932,85.333-104.509c0-51.604-36.646-94.648-85.333-104.531    v-87.47C426.631,23.893,402.774,0.035,373.333,0h-320C23.878,0,0,23.878,0,53.333v32C0,91.224,4.776,96,10.667,96h74.667v362.667    c0.035,29.441,23.893,53.298,53.333,53.333h320c29.441-0.035,53.298-23.893,53.333-53.333v-21.333    C512,431.442,507.224,426.667,501.333,426.667z M85.333,74.666h-64V53.333c0-17.673,14.327-32,32-32c17.673,0,32,14.327,32,32    V74.666z M490.667,245.333c0,47.128-38.205,85.333-85.333,85.333S320,292.462,320,245.333C320,198.204,358.205,160,405.333,160    C452.44,160.053,490.614,198.227,490.667,245.333z M170.667,437.333v21.333c0,17.673-14.327,32-32,32c-17.673,0-32-14.327-32-32    V53.333c0-12.007-3.97-23.086-10.666-32h277.333c17.673,0,32,14.327,32,32v85.333c-58.91,0-106.667,47.756-106.667,106.667    c0,58.91,47.756,106.667,106.667,106.667v74.667h-224C175.442,426.667,170.667,431.442,170.667,437.333z M490.667,458.667    c0,17.673-14.327,32-32,32H181.333c6.943-9.222,10.688-20.457,10.667-32V448h298.667V458.667z" fill="#006DF0"/>
	</g>
</g>
<g>
	<g>
		<path d="M458.667,213.333h-21.333V192c0-5.891-4.776-10.667-10.667-10.667H384c-5.891,0-10.667,4.776-10.667,10.667v21.333H352    c-5.891,0-10.667,4.776-10.667,10.667v42.667c0,5.891,4.776,10.667,10.667,10.667h21.333v21.333    c0,5.891,4.776,10.667,10.667,10.667h42.667c5.891,0,10.667-4.776,10.667-10.667v-21.333h21.333    c5.891,0,10.667-4.776,10.667-10.667V224C469.334,218.109,464.558,213.333,458.667,213.333z M448,256h-21.333    c-5.891,0-10.667,4.776-10.667,10.667V288h-21.333v-21.333c0-5.891-4.776-10.667-10.667-10.667h-21.333v-21.333H384    c5.891,0,10.667-4.776,10.667-10.667v-21.333H416V224c0,5.891,4.776,10.667,10.667,10.667H448V256z" fill="#006DF0"/>
	</g>
</g>
<g>
	<g>
		<rect x="138.67" y="42.667" width="64" height="21.333" fill="#006DF0"/>
	</g>
</g>
<g>
	<g>
		<rect x="138.67" y="85.33" width="202.67" height="21.333" fill="#006DF0"/>
	</g>
</g>
<g>
	<g>
		<rect x="138.67" y="128" width="181.33" height="21.333" fill="#006DF0"/>
	</g>
</g>
<g>
	<g>
		<rect x="138.67" y="170.67" width="149.33" height="21.333" fill="#006DF0"/>
	</g>
</g>
<g>
	<g>
		<rect x="138.67" y="213.33" width="138.67" height="21.333" fill="#006DF0"/>
	</g>
</g>
<g>
	<g>
		<rect x="138.67" y="256" width="138.67" height="21.333" fill="#006DF0"/>
	</g>
</g>
<g>
	<g>
		<rect x="234.67" y="298.67" width="53.33" height="21.333" fill="#006DF0"/>
	</g>
</g>
<g>
	<g>
		<rect x="234.67" y="341.33" width="85.33" height="21.333" fill="#006DF0"/>
	</g>
</g>
<g>
	<g>
		<rect x="234.67" y="384" width="117.33" height="21.333" fill="#006DF0"/>
	</g>
</g>
<g>
	<g>
		<rect x="224" y="42.667" width="21.333" height="21.333" fill="#006DF0"/>
	</g>
</g>
<g>
	<g>
		<path d="M202.666,298.667h-53.333c-5.891,0-10.667,4.776-10.667,10.667v85.333c0,5.891,4.776,10.667,10.667,10.667h53.333    c5.892-0.001,10.667-4.776,10.667-10.667v-85.333C213.333,303.443,208.557,298.667,202.666,298.667z M192,384h-32v-64h32V384z" fill="#006DF0"/>
	</g>
</g>
<g>
</g>
<g>
</g>
<g>
</g>
<g>
</g>
<g>
</g>
<g>
</g>
<g>
</g>
<g>
</g>
<g>
</g>
<g>
</g>
<g>
</g>
<g>
</g>
<g>
</g>
<g>
</g>
<g>
</g>
</svg>
