<?xml version="1.0" encoding="iso-8859-1"?>
<!-- Generator: Adobe Illustrator 19.0.0, SVG Export Plug-In . SVG Version: 6.00 Build 0)  -->
<svg version="1.1" id="Capa_1" xmlns="http://www.w3.org/2000/svg" xmlns:xlink="http://www.w3.org/1999/xlink" x="0px" y="0px"
	 viewBox="0 0 512 512" style="enable-background:new 0 0 512 512;" xml:space="preserve">
<path style="fill:#76BDF6;" d="M364.138,35.31h-70.621v35.31h44.138V476.69H55.172V70.621H99.31V35.31H28.69
	c-4.873,0-8.828,3.955-8.828,8.828v459.034c0,4.873,3.955,8.828,8.828,8.828h335.448c4.873,0,8.828-3.955,8.828-8.828V44.138
	C372.966,39.265,369.011,35.31,364.138,35.31z"/>
<path style="fill:#3689C9;" d="M99.31,79.448h194.207V35.31h-61.793c0-19.5-15.81-35.31-35.31-35.31s-35.31,15.81-35.31,35.31H99.31
	V79.448z"/>
<path style="fill:#FFDDBA;" d="M99.31,79.448v-8.828H55.172V476.69h282.483V70.621h-44.138v8.828H99.31z"/>
<path style="fill:#3689C9;" d="M209.655,375.172c-0.168,0.009-0.327,0.009-0.494,0c-2.163-0.238-3.831-2.03-3.919-4.202
	l-7.548-181.31l-27.895,111.572c-0.477,1.907-2.145,3.266-4.105,3.346c-1.995,0.159-3.831-1.103-4.414-3.019l-14.124-42.434
	c-1.907-5.756-8.113-8.872-13.868-6.965c-4.493,1.492-7.53,5.694-7.521,10.425v11.07c0,2.436-1.977,4.414-4.414,4.414H94.897v-8.828
	h22.069v-6.682c0.018-10.937,8.898-19.8,19.836-19.783c8.51,0.009,16.057,5.455,18.759,13.524l9.357,28.063l31.629-126.535
	c0.494-2.154,2.542-3.584,4.732-3.319c2.18,0.221,3.866,2.013,3.964,4.202l7.636,183.446l19.006-69.667
	c0.521-1.916,2.269-3.249,4.255-3.249h52.966v8.828H239.51l-25.6,93.855C213.389,373.839,211.641,375.172,209.655,375.172z"/>
<path style="fill:#E84F4F;" d="M487.724,66.207h-13.241v-4.414c0-4.873-3.955-8.828-8.828-8.828h-8.828
	c-4.873,0-8.828,3.955-8.828,8.828v4.414h-13.241c-2.436,0-4.414,1.977-4.414,4.414v13.241h-22.069
	c-2.436,0-4.414,1.977-4.414,4.414v185.379h8.828V92.69h17.655v339.862l0.362,1.766l26.121,60.91V512h8.828v-16.772l26.121-60.91
	l0.362-1.765V70.621C492.138,68.184,490.161,66.207,487.724,66.207z"/>
<rect x="430.345" y="264.828" style="fill:#3689C9;" width="61.793" height="35.31"/>
<g style="opacity:0.14;">
	<polygon points="337.655,79.448 337.655,476.69 68.414,476.69 68.414,485.517 350.897,485.517 350.897,79.448 	"/>
</g>
<g>
</g>
<g>
</g>
<g>
</g>
<g>
</g>
<g>
</g>
<g>
</g>
<g>
</g>
<g>
</g>
<g>
</g>
<g>
</g>
<g>
</g>
<g>
</g>
<g>
</g>
<g>
</g>
<g>
</g>
</svg>
