<?xml version="1.0" encoding="iso-8859-1"?>
<!-- Generator: Adobe Illustrator 19.1.0, SVG Export Plug-In . SVG Version: 6.00 Build 0)  -->
<svg version="1.1" id="Capa_1" xmlns="http://www.w3.org/2000/svg" xmlns:xlink="http://www.w3.org/1999/xlink" x="0px" y="0px"
	 viewBox="0 0 65.005 65.005" style="enable-background:new 0 0 65.005 65.005;" xml:space="preserve">
<g>
	<g id="group-74svg">
		<path id="path-1_73_" style="fill:#EDC951;" d="M25.666,5.001h24.5c2.2,0,4.336,1.3,4.336,3.5v52.004c0,2.2-2.136,4.5-4.336,4.5
			H13.167c-2.209,0-3.665-2.291-3.665-4.5V24.571L25.666,5.001z"/>
		<path id="path-2_73_" style="fill:#8B71B5;" d="M10.352,23.002h11.315c2.208,0,3.835-1.791,3.835-4V4.501L10.352,23.002z"/>
		<path id="path-3_73_" d="M45.167,63.005H8.167c-3.071,0-5.665-2.519-5.665-5.501V21.571c0-0.343,0.117-0.675,0.332-0.94
			L18.999,0.56C19.283,0.206,19.712,0,20.167,0h24.999c2.992,0,5.336,2.417,5.336,5.501v52.003
			C50.502,60.589,48.158,63.005,45.167,63.005z M5.502,22.101v35.403c0,1.332,1.245,2.501,2.665,2.501h36.999
			c1.332,0,2.336-1.076,2.336-2.501V5.501C47.502,4.076,46.498,3,45.167,3H20.884L5.502,22.101z"/>
		<path id="path-4_73_" d="M15.63,22.002H4.855c-0.578,0-1.105-0.332-1.354-0.853S3.324,20.01,3.687,19.56L18.834,0.774
			c0.399-0.494,1.069-0.686,1.667-0.473c0.6,0.211,1.001,0.778,1.001,1.414v14.306C21.502,19.095,18.648,22.002,15.63,22.002z
			 M7.991,19.002h7.639c1.342,0,2.872-1.588,2.872-2.981V5.966L7.991,19.002z"/>
		<path id="path-5_71_" style="fill:#8B71B5;" d="M60.502,38.003c0,2.209-1.791,4-4,4h-19c-2.209,0-4-1.791-4-4v-9.001
			c0-2.209,1.791-4,4-4h19c2.209,0,4,1.791,4,4V38.003z"/>
		<path id="path-6_65_" d="M57.002,43.003h-19c-3.033,0-5.5-2.468-5.5-5.5v-9.001c0-3.032,2.467-5.5,5.5-5.5h19
			c3.033,0,5.5,2.468,5.5,5.5v9.001C62.502,40.535,60.035,43.003,57.002,43.003z M38.002,26.002c-1.378,0-2.5,1.121-2.5,2.5v9.001
			c0,1.379,1.122,2.5,2.5,2.5h19c1.378,0,2.5-1.121,2.5-2.5v-9.001c0-1.379-1.122-2.5-2.5-2.5H38.002z"/>
		<path id="path-7_35_" style="fill:#EDC951;" d="M41.986,35.85h-1.328v2.026c0,0.291-0.069,0.51-0.205,0.66
			c-0.137,0.149-0.309,0.225-0.518,0.225c-0.218,0-0.394-0.074-0.527-0.223c-0.134-0.148-0.2-0.365-0.2-0.652v-5.518
			c0-0.319,0.073-0.547,0.219-0.684c0.147-0.137,0.38-0.205,0.698-0.205h1.861c0.55,0,0.973,0.043,1.269,0.127
			c0.293,0.082,0.546,0.217,0.76,0.406c0.213,0.188,0.375,0.42,0.485,0.694c0.111,0.273,0.167,0.58,0.167,0.922
			c0,0.73-0.225,1.281-0.674,1.658C43.543,35.661,42.875,35.85,41.986,35.85z M41.634,32.569h-0.976v2.188h0.976
			c0.342,0,0.628-0.037,0.857-0.108c0.23-0.072,0.405-0.189,0.525-0.351c0.121-0.164,0.181-0.377,0.181-0.641
			c0-0.315-0.093-0.572-0.279-0.772C42.71,32.674,42.282,32.569,41.634,32.569z"/>
		<path id="path-8_21_" style="fill:#EDC951;" d="M46.776,31.479h1.89c0.491,0,0.913,0.047,1.264,0.137
			c0.352,0.092,0.671,0.261,0.957,0.514c0.746,0.636,1.118,1.607,1.118,2.91c0,0.43-0.037,0.822-0.112,1.176
			c-0.075,0.355-0.19,0.676-0.347,0.959c-0.156,0.285-0.356,0.541-0.6,0.765c-0.192,0.172-0.402,0.311-0.63,0.415
			c-0.228,0.105-0.473,0.177-0.735,0.22c-0.262,0.041-0.558,0.063-0.886,0.063h-1.89c-0.263,0-0.462-0.039-0.595-0.119
			c-0.134-0.081-0.221-0.192-0.262-0.338c-0.04-0.145-0.061-0.332-0.061-0.563v-5.25c0-0.313,0.07-0.539,0.21-0.678
			C46.237,31.549,46.463,31.479,46.776,31.479z M47.337,32.628v4.857h1.099c0.241,0,0.43-0.006,0.566-0.019
			c0.137-0.012,0.279-0.045,0.425-0.098c0.147-0.051,0.274-0.125,0.381-0.219c0.485-0.41,0.728-1.117,0.728-2.119
			c0-0.707-0.107-1.236-0.32-1.588c-0.214-0.351-0.476-0.574-0.789-0.672c-0.312-0.096-0.69-0.142-1.133-0.142H47.337z"/>
		<path id="path-9_14_" style="fill:#EDC951;" d="M57.557,32.598h-2.856v1.83h2.387c0.222,0,0.387,0.051,0.496,0.149
			c0.109,0.1,0.164,0.232,0.164,0.398s-0.056,0.299-0.166,0.397c-0.111,0.098-0.275,0.146-0.494,0.146h-2.387v2.358
			c0,0.301-0.068,0.521-0.203,0.666c-0.135,0.146-0.309,0.219-0.52,0.219c-0.215,0-0.39-0.074-0.525-0.221
			c-0.135-0.146-0.202-0.367-0.202-0.664v-5.508c0-0.207,0.03-0.379,0.092-0.51c0.062-0.133,0.159-0.229,0.291-0.289
			c0.132-0.059,0.3-0.09,0.505-0.09h3.418c0.231,0,0.403,0.051,0.515,0.154c0.113,0.102,0.169,0.237,0.169,0.403
			c0,0.17-0.056,0.304-0.169,0.408C57.96,32.546,57.788,32.598,57.557,32.598z"/>
	</g>
</g>
<g>
</g>
<g>
</g>
<g>
</g>
<g>
</g>
<g>
</g>
<g>
</g>
<g>
</g>
<g>
</g>
<g>
</g>
<g>
</g>
<g>
</g>
<g>
</g>
<g>
</g>
<g>
</g>
<g>
</g>
</svg>
