<?xml version="1.0" encoding="iso-8859-1"?>
<!-- Generator: Adobe Illustrator 19.0.0, SVG Export Plug-In . SVG Version: 6.00 Build 0)  -->
<svg version="1.1" id="Capa_1" xmlns="http://www.w3.org/2000/svg" xmlns:xlink="http://www.w3.org/1999/xlink" x="0px" y="0px"
	 viewBox="0 0 464 464" style="enable-background:new 0 0 464 464;" xml:space="preserve">
<g>
	<path style="fill:#78B9EB;" d="M360,316.023h-96v40l-16-12v28l8,56h200v-16C456,359.004,413.019,316.023,360,316.023z"/>
	<path style="fill:#78B9EB;" d="M200,356.023v-40h-96c-53.019,0-96,42.981-96,96v16h200l8-56v-28L200,356.023z"/>
	<path style="fill:#78B9EB;" d="M232,332.023l-10.64,8h21.28L232,332.023z"/>
</g>
<g>
	<path style="fill:#1E81CE;" d="M360,308.023h-64v-40c0-4.418-3.582-8-8-8H176c-4.418,0-8,3.582-8,8v40h-64
		c-57.41,0.066-103.934,46.59-104,104v16c0,4.418,3.582,8,8,8h448c4.418,0,8-3.582,8-8v-16
		C463.934,354.613,417.41,308.089,360,308.023z M184,276.023h96v32h-96V276.023z M252.8,337.623l-0.296-0.216L236.8,325.623
		c-2.844-2.133-6.756-2.133-9.6,0l-15.68,11.76l-0.32,0.24l-3.2,2.4v-16h48v16L252.8,337.623z M224,348.023h16v16h-16L224,348.023z
		 M16,412.023c0.057-48.577,39.423-87.943,88-88h88v32c0,4.418,3.582,8,8,8c1.731,0,3.415-0.561,4.8-1.6l3.2-2.4v11.416
		l-6.944,48.584H96v-40H80v40H16V412.023z M217.224,420.023l5.712-40h18.128l5.712,40H217.224z M448,420.023h-64v-40h-16v40H262.944
		L256,371.439v-11.416l3.2,2.4c3.535,2.651,8.549,1.935,11.2-1.6c1.039-1.385,1.6-3.069,1.6-4.8v-32h88
		c48.577,0.057,87.943,39.423,88,88V420.023z"/>
	<path style="fill:#1E81CE;" d="M196.408,56.823c13.098-10.717,30.311-14.998,46.904-11.664c30.299,6.207,49.829,35.801,43.622,66.1
		c-4.507,22.001-21.723,39.182-43.734,43.644c-11.155,2.277-19.176,12.079-19.2,23.464v33.656h16v-33.656
		c0.006-3.768,2.654-7.014,6.344-7.776c38.828-8.152,63.896-45.996,56.256-84.928c-5.677-28.38-27.86-50.563-56.24-56.24
		c-39.009-7.895-77.032,17.327-84.928,56.336c-0.95,4.695-1.43,9.474-1.432,14.264h16C175.988,83.293,183.477,67.439,196.408,56.823
		L196.408,56.823z"/>
	<path style="fill:#1E81CE;" d="M224,228.023h16v16h-16V228.023z"/>
	<path style="fill:#1E81CE;" d="M360,196.023h16v16h-16V196.023z"/>
	<path style="fill:#1E81CE;" d="M376,212.023h16v16h-16V212.023z"/>
	<path style="fill:#1E81CE;" d="M360,228.023h16v16h-16V228.023z"/>
	<path style="fill:#1E81CE;" d="M344,212.023h16v16h-16V212.023z"/>
	<path style="fill:#1E81CE;" d="M392,100.023c13.255,0,24-10.745,24-24s-10.745-24-24-24s-24,10.745-24,24
		S378.745,100.023,392,100.023z M392,68.023c4.418,0,8,3.582,8,8s-3.582,8-8,8s-8-3.582-8-8S387.582,68.023,392,68.023z"/>
	<path style="fill:#1E81CE;" d="M40,28.023h16v16H40V28.023z"/>
	<path style="fill:#1E81CE;" d="M56,44.023h16v16H56V44.023z"/>
	<path style="fill:#1E81CE;" d="M40,60.023h16v16H40V60.023z"/>
	<path style="fill:#1E81CE;" d="M24,44.023h16v16H24V44.023z"/>
	<path style="fill:#1E81CE;" d="M88,140.023h16v16H88V140.023z"/>
	<path style="fill:#1E81CE;" d="M104,156.023h16v16h-16V156.023z"/>
	<path style="fill:#1E81CE;" d="M88,172.023h16v16H88V172.023z"/>
	<path style="fill:#1E81CE;" d="M72,156.023h16v16H72V156.023z"/>
</g>
<g>
</g>
<g>
</g>
<g>
</g>
<g>
</g>
<g>
</g>
<g>
</g>
<g>
</g>
<g>
</g>
<g>
</g>
<g>
</g>
<g>
</g>
<g>
</g>
<g>
</g>
<g>
</g>
<g>
</g>
</svg>
