<svg 
 xmlns="http://www.w3.org/2000/svg"
 xmlns:xlink="http://www.w3.org/1999/xlink"
 width="1.556in" height="1.958in">
<path fill-rule="evenodd"  fill="rgb(27, 57, 103)"
 d="M81.254,54.847 L79.556,55.950 C78.321,60.364 75.696,65.409 72.608,69.192 C72.454,69.507 72.299,69.665 72.145,69.823 C71.064,71.084 69.674,72.345 67.976,73.606 C67.976,73.764 67.822,73.764 67.822,73.764 C60.102,78.808 49.912,78.808 42.346,73.606 C40.802,72.502 39.721,71.399 38.640,70.295 C35.244,66.512 32.310,60.995 30.921,56.107 L29.068,55.162 C26.443,47.910 25.362,41.920 25.826,34.196 L27.061,33.249 C26.906,30.884 26.906,28.678 27.061,26.314 C27.524,17.170 29.531,11.495 37.251,6.136 C42.809,2.195 48.368,0.461 55.161,0.461 C61.955,0.461 67.513,2.037 73.071,5.820 C80.791,11.180 82.798,16.855 83.262,25.998 C83.416,28.363 83.416,30.571 83.262,32.934 L84.497,33.880 C84.960,41.605 83.879,47.595 81.254,54.847 ZM80.173,36.403 L79.556,35.929 C78.938,35.457 78.938,35.929 78.784,36.403 C78.629,37.191 78.321,38.453 78.012,39.241 C77.549,40.344 75.079,40.659 74.152,40.975 C74.461,38.137 74.770,35.615 74.770,33.722 C75.079,26.156 72.608,26.787 68.131,28.836 C56.088,34.511 55.007,34.511 42.809,28.836 C38.177,26.787 35.707,26.156 36.016,33.722 C36.016,35.615 36.170,38.137 36.633,40.975 C35.553,40.659 33.082,40.344 32.773,39.241 C32.465,38.453 32.156,37.348 32.001,36.403 C31.847,35.929 31.693,35.457 31.229,35.929 L30.612,36.403 C30.457,36.403 30.457,36.560 30.921,36.875 C30.921,42.078 31.693,46.650 33.237,51.536 C33.391,51.851 33.545,52.167 33.854,52.325 L34.781,52.798 C35.089,52.955 35.244,53.271 35.398,53.743 L35.707,55.005 C36.942,59.102 39.567,63.989 42.501,67.299 C44.353,69.350 47.132,71.084 49.757,72.029 C52.845,73.133 58.404,73.133 61.491,72.029 C64.116,71.084 66.896,69.350 68.748,67.299 C71.682,64.148 74.307,59.261 75.542,55.005 L75.851,53.743 C76.005,53.271 76.159,52.955 76.468,52.798 L77.394,52.325 C77.703,52.167 77.857,51.851 78.012,51.536 C79.556,46.491 80.328,42.078 80.328,36.875 C80.328,36.560 80.328,36.560 80.173,36.403 Z"/>
<path fill-rule="evenodd"  fill="rgb(50, 106, 192)"
 d="M62.200,100.698 L59.891,91.276 L61.893,87.193 L56.196,83.268 L50.500,87.193 L52.501,91.276 L50.192,100.541 C45.573,92.846 41.570,84.995 38.799,76.044 C38.337,74.474 36.798,73.689 35.412,74.159 C33.411,74.789 31.255,75.415 29.100,76.044 C26.175,77.457 14.936,78.715 8.778,87.350 C3.235,95.045 1.696,114.830 0.772,128.962 C0.310,135.243 5.237,140.582 11.395,140.582 L100.689,140.582 C107.001,140.582 111.928,135.086 111.312,128.648 C109.927,114.830 107.771,95.673 103.615,87.350 C101.767,83.425 85.448,76.987 83.754,76.358 C83.446,76.358 83.292,76.201 83.138,76.044 C80.983,75.415 78.828,74.945 76.980,74.318 C75.595,73.846 74.055,74.789 73.593,76.201 C70.822,85.152 66.819,93.003 62.200,100.698 L62.200,100.698 Z"/>
</svg>